<svg width="300" height="100" viewBox="0 0 300 100" fill="none" xmlns="http://www.w3.org/2000/svg">
<path d="M78.3537 51L72.527 30.6364H77.2301L80.6009 44.7855H80.7699L84.4886 30.6364H88.5156L92.2244 44.8153H92.4034L95.7741 30.6364H100.477L94.6506 51H90.4545L86.5767 37.6861H86.4176L82.5497 51H78.3537ZM105.417 51.2884C104.442 51.2884 103.574 51.1193 102.811 50.7812C102.049 50.4366 101.446 49.9295 101.002 49.2599C100.564 48.5838 100.346 47.742 100.346 46.7344C100.346 45.8859 100.501 45.1733 100.813 44.5966C101.124 44.0199 101.549 43.5559 102.086 43.2045C102.623 42.8532 103.232 42.5881 103.915 42.4091C104.605 42.2301 105.327 42.1042 106.083 42.0312C106.971 41.9384 107.687 41.8523 108.23 41.7727C108.774 41.6866 109.168 41.5606 109.414 41.3949C109.659 41.2292 109.782 40.9839 109.782 40.6591V40.5994C109.782 39.9697 109.583 39.4825 109.185 39.1378C108.794 38.7931 108.237 38.6207 107.515 38.6207C106.752 38.6207 106.146 38.7898 105.695 39.1278C105.244 39.4593 104.946 39.8769 104.8 40.3807L100.882 40.0625C101.081 39.1345 101.472 38.3324 102.056 37.6562C102.639 36.9735 103.391 36.4498 104.313 36.0852C105.241 35.714 106.315 35.5284 107.534 35.5284C108.383 35.5284 109.195 35.6278 109.971 35.8267C110.753 36.0256 111.445 36.3338 112.049 36.7514C112.658 37.169 113.139 37.706 113.49 38.3622C113.842 39.0118 114.017 39.7907 114.017 40.6989V51H110V48.8821H109.881C109.636 49.3594 109.308 49.7803 108.897 50.1449C108.486 50.5028 107.992 50.7846 107.415 50.9901C106.838 51.1889 106.172 51.2884 105.417 51.2884ZM106.63 48.3651C107.253 48.3651 107.803 48.2424 108.28 47.9972C108.757 47.7453 109.132 47.4072 109.404 46.983C109.676 46.5587 109.811 46.0781 109.811 45.5412V43.9205C109.679 44.0066 109.497 44.0862 109.265 44.1591C109.039 44.2254 108.784 44.2884 108.499 44.348C108.214 44.401 107.929 44.4508 107.644 44.4972C107.359 44.5369 107.1 44.5734 106.868 44.6065C106.371 44.6795 105.937 44.7955 105.566 44.9545C105.194 45.1136 104.906 45.3291 104.701 45.6009C104.495 45.866 104.392 46.1974 104.392 46.5952C104.392 47.1719 104.601 47.6127 105.019 47.9176C105.443 48.2159 105.98 48.3651 106.63 48.3651ZM125.427 35.7273V38.9091H116.23V35.7273H125.427ZM118.318 32.0682H122.554V46.3068C122.554 46.6979 122.613 47.0028 122.733 47.2216C122.852 47.4337 123.018 47.5829 123.23 47.669C123.449 47.7552 123.7 47.7983 123.985 47.7983C124.184 47.7983 124.383 47.7817 124.582 47.7486C124.781 47.7088 124.933 47.679 125.039 47.6591L125.706 50.8111C125.493 50.8774 125.195 50.9536 124.811 51.0398C124.426 51.1326 123.959 51.1889 123.409 51.2088C122.388 51.2486 121.493 51.1127 120.724 50.8011C119.962 50.4896 119.368 50.0057 118.944 49.3494C118.52 48.6932 118.311 47.8646 118.318 46.8636V32.0682ZM136.31 35.7273V38.9091H127.113V35.7273H136.31ZM129.201 32.0682H133.436V46.3068C133.436 46.6979 133.496 47.0028 133.615 47.2216C133.735 47.4337 133.9 47.5829 134.113 47.669C134.331 47.7552 134.583 47.7983 134.868 47.7983C135.067 47.7983 135.266 47.7817 135.465 47.7486C135.664 47.7088 135.816 47.679 135.922 47.6591L136.588 50.8111C136.376 50.8774 136.078 50.9536 135.694 51.0398C135.309 51.1326 134.842 51.1889 134.292 51.2088C133.271 51.2486 132.376 51.1127 131.607 50.8011C130.845 50.4896 130.251 50.0057 129.827 49.3494C129.403 48.6932 129.194 47.8646 129.201 46.8636V32.0682Z" fill="white"/>
<path d="M144.354 51L138.527 30.6364H143.23L146.601 44.7855H146.77L150.489 30.6364H154.516L158.224 44.8153H158.403L161.774 30.6364H166.477L160.651 51H156.455L152.577 37.6861H152.418L148.55 51H144.354ZM172.938 42.1705V51H168.702V30.6364H172.819V38.4219H172.998C173.342 37.5204 173.899 36.8144 174.668 36.304C175.437 35.7869 176.401 35.5284 177.561 35.5284C178.622 35.5284 179.547 35.7604 180.336 36.2244C181.131 36.6818 181.748 37.3414 182.185 38.2031C182.629 39.0582 182.848 40.0824 182.841 41.2756V51H178.605V42.0312C178.612 41.09 178.373 40.3575 177.89 39.8338C177.412 39.3101 176.743 39.0483 175.881 39.0483C175.304 39.0483 174.794 39.1709 174.35 39.4162C173.912 39.6615 173.568 40.0194 173.316 40.4901C173.07 40.9541 172.944 41.5142 172.938 42.1705ZM193.135 51.2983C191.564 51.2983 190.212 50.9801 189.078 50.3438C187.951 49.7008 187.083 48.7926 186.473 47.6193C185.863 46.4394 185.558 45.044 185.558 43.4332C185.558 41.8622 185.863 40.4834 186.473 39.2969C187.083 38.1103 187.941 37.1856 189.048 36.5227C190.162 35.8598 191.468 35.5284 192.966 35.5284C193.973 35.5284 194.911 35.6908 195.78 36.0156C196.655 36.3338 197.417 36.8144 198.067 37.4574C198.723 38.1004 199.233 38.9091 199.598 39.8835C199.963 40.8513 200.145 41.9848 200.145 43.2841V44.4474H187.249V41.8224H196.158C196.158 41.2126 196.025 40.6723 195.76 40.2017C195.495 39.7311 195.127 39.3632 194.656 39.098C194.192 38.8262 193.652 38.6903 193.036 38.6903C192.393 38.6903 191.822 38.8395 191.325 39.1378C190.835 39.4295 190.45 39.8239 190.172 40.321C189.893 40.8116 189.751 41.3584 189.744 41.9616V44.4574C189.744 45.2131 189.884 45.866 190.162 46.4162C190.447 46.9664 190.848 47.3906 191.365 47.6889C191.882 47.9872 192.495 48.1364 193.205 48.1364C193.675 48.1364 194.106 48.0701 194.497 47.9375C194.888 47.8049 195.223 47.6061 195.501 47.3409C195.78 47.0758 195.992 46.7509 196.138 46.3665L200.055 46.625C199.857 47.5663 199.449 48.3883 198.832 49.0909C198.223 49.7869 197.434 50.3305 196.466 50.7216C195.505 51.1061 194.394 51.2983 193.135 51.2983ZM202.909 51V35.7273H207.016V38.392H207.175C207.453 37.4441 207.92 36.7282 208.577 36.2443C209.233 35.7538 209.989 35.5085 210.844 35.5085C211.056 35.5085 211.285 35.5218 211.53 35.5483C211.775 35.5748 211.991 35.6113 212.176 35.6577V39.4162C211.977 39.3565 211.702 39.3035 211.351 39.2571C211 39.2107 210.678 39.1875 210.386 39.1875C209.763 39.1875 209.206 39.3234 208.716 39.5952C208.232 39.8603 207.848 40.2315 207.562 40.7088C207.284 41.1861 207.145 41.7363 207.145 42.3594V51H202.909ZM220.615 51.2983C219.044 51.2983 217.692 50.9801 216.559 50.3438C215.432 49.7008 214.563 48.7926 213.953 47.6193C213.344 46.4394 213.039 45.044 213.039 43.4332C213.039 41.8622 213.344 40.4834 213.953 39.2969C214.563 38.1103 215.422 37.1856 216.529 36.5227C217.642 35.8598 218.948 35.5284 220.446 35.5284C221.454 35.5284 222.392 35.6908 223.26 36.0156C224.135 36.3338 224.898 36.8144 225.547 37.4574C226.203 38.1004 226.714 38.9091 227.078 39.8835C227.443 40.8513 227.625 41.9848 227.625 43.2841V44.4474H214.729V41.8224H223.638C223.638 41.2126 223.506 40.6723 223.24 40.2017C222.975 39.7311 222.607 39.3632 222.137 39.098C221.673 38.8262 221.132 38.6903 220.516 38.6903C219.873 38.6903 219.303 38.8395 218.806 39.1378C218.315 39.4295 217.931 39.8239 217.652 40.321C217.374 40.8116 217.231 41.3584 217.225 41.9616V44.4574C217.225 45.2131 217.364 45.866 217.642 46.4162C217.927 46.9664 218.328 47.3906 218.846 47.6889C219.363 47.9872 219.976 48.1364 220.685 48.1364C221.156 48.1364 221.587 48.0701 221.978 47.9375C222.369 47.8049 222.703 47.6061 222.982 47.3409C223.26 47.0758 223.472 46.7509 223.618 46.3665L227.536 46.625C227.337 47.5663 226.929 48.3883 226.313 49.0909C225.703 49.7869 224.914 50.3305 223.946 50.7216C222.985 51.1061 221.875 51.2983 220.615 51.2983Z" fill="#888888"/>
<path d="M76.3722 63.0909C76.3338 62.767 76.1783 62.5156 75.9055 62.3366C75.6328 62.1577 75.2983 62.0682 74.902 62.0682C74.6122 62.0682 74.3587 62.1151 74.1413 62.2088C73.9261 62.3026 73.7578 62.4315 73.6364 62.5955C73.517 62.7596 73.4574 62.946 73.4574 63.1548C73.4574 63.3295 73.4989 63.4798 73.582 63.6055C73.6673 63.729 73.7759 63.8324 73.908 63.9155C74.0401 63.9964 74.1786 64.0636 74.3235 64.1168C74.4684 64.168 74.6016 64.2095 74.723 64.2415L75.3878 64.4205C75.5582 64.4652 75.7479 64.527 75.9567 64.6058C76.1676 64.6847 76.369 64.7923 76.5607 64.9286C76.7546 65.0629 76.9144 65.2354 77.0401 65.4464C77.1658 65.6573 77.2287 65.9162 77.2287 66.223C77.2287 66.5767 77.136 66.8963 76.9506 67.1818C76.7674 67.4673 76.4989 67.6942 76.1452 67.8626C75.7937 68.0309 75.3665 68.1151 74.8636 68.1151C74.3949 68.1151 73.989 68.0394 73.646 67.8881C73.305 67.7369 73.0366 67.5259 72.8406 67.2553C72.6467 66.9847 72.5369 66.6705 72.5114 66.3125H73.3295C73.3509 66.5597 73.4339 66.7642 73.5788 66.9261C73.7259 67.0859 73.9112 67.2053 74.1349 67.2841C74.3608 67.3608 74.6037 67.3991 74.8636 67.3991C75.1662 67.3991 75.4379 67.3501 75.6786 67.2521C75.9194 67.152 76.1101 67.0135 76.2507 66.8366C76.3913 66.6577 76.4616 66.4489 76.4616 66.2102C76.4616 65.9929 76.4009 65.8161 76.2795 65.6797C76.158 65.5433 75.9982 65.4325 75.8001 65.3473C75.6019 65.2621 75.3878 65.1875 75.1577 65.1236L74.3523 64.8935C73.8409 64.7464 73.4361 64.5366 73.1378 64.2638C72.8395 63.9911 72.6903 63.6342 72.6903 63.1932C72.6903 62.8267 72.7894 62.5071 72.9876 62.2344C73.1879 61.9595 73.4563 61.7464 73.793 61.5952C74.1317 61.4418 74.5099 61.3651 74.9276 61.3651C75.3494 61.3651 75.7244 61.4407 76.0526 61.592C76.3807 61.7411 76.6406 61.9457 76.8324 62.2056C77.0263 62.4656 77.1286 62.7607 77.1392 63.0909H76.3722ZM79.3245 61.4545V68H78.5319V61.4545H79.3245ZM80.5558 62.1577V61.4545H85.4648V62.1577H83.4066V68H82.614V62.1577H80.5558ZM86.6881 68V61.4545H90.6384V62.1577H87.4807V64.3693H90.4339V65.0724H87.4807V67.2969H90.6895V68H86.6881ZM95.3909 61.4545V68H94.5983V61.4545H95.3909ZM102.17 61.4545V68H101.403L97.8366 62.8608H97.7727V68H96.9801V61.4545H97.7472L101.327 66.6065H101.391V61.4545H102.17ZM103.399 62.1577V61.4545H108.308V62.1577H106.249V68H105.457V62.1577H103.399ZM109.531 68V61.4545H113.481V62.1577H110.324V64.3693H113.277V65.0724H110.324V67.2969H113.532V68H109.531ZM114.91 68V61.4545H115.702V67.2969H118.745V68H114.91ZM119.972 68V61.4545H120.765V67.2969H123.808V68H119.972ZM125.827 61.4545V68H125.035V61.4545H125.827ZM131.891 63.5C131.821 63.2848 131.728 63.092 131.613 62.9215C131.5 62.7489 131.365 62.6019 131.207 62.4805C131.052 62.359 130.875 62.2663 130.677 62.2024C130.478 62.1385 130.261 62.1065 130.025 62.1065C129.637 62.1065 129.284 62.2067 128.967 62.407C128.649 62.6072 128.397 62.9023 128.209 63.2923C128.022 63.6822 127.928 64.1605 127.928 64.7273C127.928 65.294 128.023 65.7724 128.212 66.1623C128.402 66.5522 128.659 66.8473 128.983 67.0476C129.307 67.2479 129.671 67.348 130.076 67.348C130.451 67.348 130.781 67.2681 131.066 67.1083C131.354 66.9464 131.578 66.7184 131.738 66.4244C131.9 66.1282 131.981 65.7798 131.981 65.3793L132.223 65.4304H130.255V64.7273H132.748V65.4304C132.748 65.9695 132.633 66.4382 132.402 66.8366C132.174 67.2351 131.859 67.544 131.456 67.7635C131.056 67.9808 130.596 68.0895 130.076 68.0895C129.496 68.0895 128.987 67.9531 128.548 67.6804C128.111 67.4077 127.77 67.0199 127.525 66.517C127.282 66.0142 127.161 65.4176 127.161 64.7273C127.161 64.2095 127.23 63.744 127.369 63.3306C127.509 62.9151 127.707 62.5614 127.963 62.2695C128.219 61.9776 128.521 61.7539 128.871 61.5984C129.22 61.4428 129.605 61.3651 130.025 61.3651C130.37 61.3651 130.691 61.4173 130.99 61.5217C131.29 61.6239 131.558 61.7699 131.792 61.9595C132.028 62.147 132.226 62.3718 132.383 62.6339C132.541 62.8938 132.65 63.1825 132.709 63.5H131.891ZM134.105 68V61.4545H138.055V62.1577H134.898V64.3693H137.851V65.0724H134.898V67.2969H138.107V68H134.105ZM144.674 61.4545V68H143.907L140.341 62.8608H140.277V68H139.484V61.4545H140.251L143.831 66.6065H143.895V61.4545H144.674ZM151.527 63.5H150.735C150.688 63.272 150.606 63.0717 150.489 62.8991C150.374 62.7266 150.233 62.5817 150.067 62.4645C149.903 62.3452 149.721 62.2557 149.52 62.196C149.32 62.1364 149.111 62.1065 148.894 62.1065C148.498 62.1065 148.139 62.2067 147.817 62.407C147.497 62.6072 147.243 62.9023 147.053 63.2923C146.866 63.6822 146.772 64.1605 146.772 64.7273C146.772 65.294 146.866 65.7724 147.053 66.1623C147.243 66.5522 147.497 66.8473 147.817 67.0476C148.139 67.2479 148.498 67.348 148.894 67.348C149.111 67.348 149.32 67.3182 149.52 67.2585C149.721 67.1989 149.903 67.1104 150.067 66.9933C150.233 66.8739 150.374 66.728 150.489 66.5554C150.606 66.3807 150.688 66.1804 150.735 65.9545H151.527C151.468 66.2891 151.359 66.5884 151.201 66.8526C151.044 67.1168 150.848 67.3416 150.613 67.527C150.379 67.7102 150.116 67.8498 149.824 67.9457C149.534 68.0415 149.224 68.0895 148.894 68.0895C148.336 68.0895 147.839 67.9531 147.405 67.6804C146.97 67.4077 146.628 67.0199 146.379 66.517C146.129 66.0142 146.005 65.4176 146.005 64.7273C146.005 64.0369 146.129 63.4403 146.379 62.9375C146.628 62.4347 146.97 62.0469 147.405 61.7741C147.839 61.5014 148.336 61.3651 148.894 61.3651C149.224 61.3651 149.534 61.413 149.824 61.5089C150.116 61.6048 150.379 61.7454 150.613 61.9308C150.848 62.114 151.044 62.3377 151.201 62.6019C151.359 62.864 151.468 63.1634 151.527 63.5ZM152.808 68V61.4545H156.759V62.1577H153.601V64.3693H156.554V65.0724H153.601V67.2969H156.81V68H152.808Z" fill="#FFD60A"/>
<g filter="url(#filter0_f_53_146)">
<path d="M41.5 18C31.4091 18 23 26.3333 23 36.3333C23 51.3333 41.5 68 41.5 68C41.5 68 60 51.3333 60 36.3333C60 26.3333 51.5909 18 41.5 18Z" fill="#2D6A3F"/>
</g>
<path d="M42 28C38.1111 28 35 31.375 35 35.125C35 38.5 36.9444 41.125 40.0556 41.875V46H43.9444V41.875C47.0556 41.125 49 38.5 49 35.125C49 31.375 45.8889 28 42 28Z" fill="#5CB870"/>
<defs>
<filter id="filter0_f_53_146" x="18" y="13" width="47" height="60" filterUnits="userSpaceOnUse" color-interpolation-filters="sRGB">
<feFlood flood-opacity="0" result="BackgroundImageFix"/>
<feBlend mode="normal" in="SourceGraphic" in2="BackgroundImageFix" result="shape"/>
<feGaussianBlur stdDeviation="2.5" result="effect1_foregroundBlur_53_146"/>
</filter>
</defs>
</svg>
